<svg id="Capa_1" enable-background="new 0 0 512 512" viewBox="0 0 512 512" xmlns="http://www.w3.org/2000/svg"><g><g><path d="m105 151h-40c-8.284 0-15-6.716-15-15v-60c0-8.284 6.716-15 15-15h40c8.284 0 15 6.716 15 15v60c0 8.284-6.716 15-15 15z" fill="#00465f"/></g><path d="m512 261v-95c0-30.327-24.673-55-55-55h-99.288l-9.585-38.339c-6.132-24.53-28.073-41.661-53.357-41.661h-77.54c-25.284 0-47.226 17.131-53.356 41.66l-9.586 38.34h-99.288c-30.327 0-55 24.673-55 55v95l16 55-16 55v15c0 30.327 24.673 55 55 55h402c30.327 0 55-24.673 55-55v-15l-21-55z" fill="#00607f"/><path d="m457 111h-99.288l-9.585-38.339c-6.132-24.53-28.073-41.661-53.357-41.661h-38.77v410h201c30.327 0 55-24.673 55-55v-15l-21-55 21-55v-95c0-30.327-24.673-55-55-55z" fill="#00465f"/><path d="m0 261h512v110h-512z" fill="#ffc178"/><path d="m256 261h256v110h-256z" fill="#ff936b"/><g><path d="m281 106h-50c-8.284 0-15-6.716-15-15s6.716-15 15-15h50c8.284 0 15 6.716 15 15s-6.716 15-15 15z" fill="#ffe278"/></g><path d="m281 76h-25v30h25c8.284 0 15-6.716 15-15s-6.716-15-15-15z" fill="#ffe278"/><g><path d="m451 186h-20c-8.284 0-15-6.716-15-15s6.716-15 15-15h20c8.284 0 15 6.716 15 15s-6.716 15-15 15z" fill="#00c6cb"/></g><g><path d="m256 481c-90.981 0-165-74.019-165-165s74.019-165 165-165 165 74.019 165 165-74.019 165-165 165z" fill="#00ddc1"/></g><path d="m421 316c0-90.981-74.019-165-165-165v330c90.981 0 165-74.019 165-165z" fill="#00c6cb"/><g><path d="m256 421c-57.897 0-105-47.103-105-105s47.103-105 105-105 105 47.103 105 105-47.103 105-105 105z" fill="#ffe278"/></g><path d="m361 316c0-57.897-47.103-105-105-105v210c57.897 0 105-47.103 105-105z" fill="#ffc178"/><g><circle cx="60" cy="171" fill="#00ddc1" r="15"/></g></g></svg>